<svg width="100%" height="100%" viewBox="0 0 1024 1024" version="1.1" xmlns="http://www.w3.org/2000/svg" xmlns:xlink="http://www.w3.org/1999/xlink" xml:space="preserve" xmlns:serif="http://www.serif.com/" style="fill-rule:evenodd;clip-rule:evenodd;stroke-linejoin:round;stroke-miterlimit:2;">
    <g transform="matrix(1,0,0,1,127,64)">
        <path d="M68.953,357.545C69.669,351.02 91.843,123.934 92.01,122.452C94.254,102.548 90.704,68.159 126.48,63.289C132.416,62.481 555.04,60.073 555.547,60.126C570.621,61.701 698.068,71.932 706.483,72.692C725.742,74.429 749.755,71.492 750.309,95.506C750.863,119.49 750.33,119.439 750.263,449.499C750.257,480.764 742.552,480.172 712.591,488.853C623.219,514.748 623.642,515.784 534.388,542.144C500.146,552.257 483.983,551.14 449.471,546.739C407.344,541.367 407.616,540.11 365.448,534.943C358.878,534.138 352.675,533.378 283.474,523.686C112.34,499.72 112.303,500.16 97.438,497.977C84.566,496.087 65.256,497.197 59.85,479.395C57.01,470.041 57.918,469.734 68.953,357.545ZM476.936,151.546C479.616,131.478 482.875,112.162 463.418,107.885C460.959,107.344 183.875,102.18 159.495,101.774C145.516,101.541 126.722,98.591 122.792,113.581C121.744,117.579 105.025,292.905 103.538,308.504C93.167,417.267 91.087,417.013 91.307,426.501C91.703,443.548 110.493,443.185 123.481,444.678C140.684,446.656 331.018,468.542 338.527,469.282C357.727,471.175 423.684,479.862 429.444,479.121C448.677,476.645 447.252,458.065 449.922,430.548C452.088,408.228 476.462,157.062 476.936,151.546Z" style="fill:rgb(210,210,210);"/>
    </g>
    <g transform="matrix(1,0,0,1,127,64)">
        <path d="M57.902,700.501L57.901,596.5C57.907,566.84 55.623,556.481 69.499,553.495C73.507,552.633 392.66,586.199 521.463,598.855C538.991,600.578 557.405,599.07 558.146,614.527C558.408,619.983 558.233,770.901 558.217,784.499C558.171,824.454 560.415,833.533 547.504,836.519C541.478,837.913 306.408,805.437 252.445,798.944C240.997,797.566 144.547,785.961 109.442,780.935C81.471,776.931 65.739,778.892 59.962,768.25C57.619,763.934 57.861,763.659 57.902,700.501Z" style="fill:rgb(210,210,210);"/>
    </g>
    <g transform="matrix(1,0,0,1,127,64)">
        <path d="M567.95,829.385C570.25,819.751 568.971,819.677 569.114,682.5C569.191,609.377 569.027,609.152 566.217,603.65C564.803,600.883 562.417,599.458 566.657,597.932C602.643,584.984 754.532,528.424 757.499,528.478C759.012,528.505 759.86,529.123 759.679,527.571C759.352,524.755 749.208,521.746 742.491,522.291C741.433,522.377 740.459,522.551 739.623,522.828C722.077,528.642 628.005,563.453 618.318,567.037C553.82,590.904 553.663,591.103 547.491,590.622C543.569,590.317 401.383,575.079 385.464,573.829C369.592,572.582 369.732,572.192 187.485,553.649C97.875,544.531 97.85,545.209 90.135,543.888C85.918,543.167 93.208,541.655 93.529,541.588C102.105,539.809 176.704,520.596 179.467,520.928C234.782,527.586 462.568,561.055 478.504,561.104C510.626,561.201 511.887,560.626 573.37,542.101C583.184,539.144 667.057,513.33 670.499,513.535C682.228,514.236 730.379,519.217 743.475,519.793C769.392,520.932 765.914,534.821 765.93,560.499C765.938,573.139 766.026,717.865 766.003,718.499C765.546,731.16 761.638,730.486 727.709,747.898C715.102,754.368 574.837,826.351 570.38,829.248C569.048,830.114 568.651,829.534 567.95,829.385Z" style="fill:rgb(210,210,210);"/>
    </g>
    <g transform="matrix(0.936379,0,0,0.936379,238.29618,168.847665)">
        <g transform="matrix(0.876251,0,0,0.876251,15.819549,2.717662)">
            <path d="M275.49,35.969C322.894,37.394 324.901,37.031 333.413,43.616C350.503,56.836 346.231,70.288 343.285,100.478C328.797,248.963 328.882,255.525 326.022,262.28C318.273,280.589 298.055,284.2 291.496,283.563C244.36,278.988 235.251,278.923 225.906,267.155C214.934,253.338 217.521,249.649 224.238,183.474C236.463,63.035 235.738,62.595 239.998,54.777C240.779,53.344 245.165,45.295 254.406,40.328C264.985,34.642 274.514,35.958 275.49,35.969Z" style="fill:rgb(210,210,210);"/>
        </g>
        <g transform="matrix(0.876251,0,0,0.876251,15.819549,2.717662)">
            <path d="M115.495,30.964C126.889,31.304 149.748,28.665 155.673,56.466C157.018,62.777 141.222,200.046 138.878,225.532C138.407,230.655 138.131,268.121 98.554,264.017C67.759,260.823 47.868,262.486 40.282,239.576C37.698,231.771 38.284,231.555 47.254,147.472C56.897,57.073 56.503,56.813 59.847,49.667C67.632,33.03 83.553,30.649 85.453,30.229C87.8,29.711 87.821,30.37 115.495,30.964Z" style="fill:rgb(210,210,210);"/>
        </g>
    </g>
</svg>
