<?xml version="1.0" encoding="UTF-8" standalone="no"?>
<!DOCTYPE svg PUBLIC "-//W3C//DTD SVG 1.1//EN" "http://www.w3.org/Graphics/SVG/1.1/DTD/svg11.dtd">
<svg width="100%" height="100%" viewBox="0 0 1024 1024" version="1.1" xmlns="http://www.w3.org/2000/svg" xmlns:xlink="http://www.w3.org/1999/xlink" xml:space="preserve" xmlns:serif="http://www.serif.com/" style="fill-rule:evenodd;clip-rule:evenodd;stroke-linejoin:round;stroke-miterlimit:2;">
    <g id="probe.png" transform="matrix(1.34858,0,0,1.34858,-178.227522,-178.580499)">
        <path d="M641.538,535.099C635.025,534.492 635.067,534.486 634.504,534.444C594.059,531.398 557.137,560.702 545.249,588.388C520.569,645.864 550.759,671.814 570.316,736.554C593.8,814.293 508.377,853.463 465.975,805.101C428.862,762.771 465.892,711.615 484.016,662.339C501.13,615.811 479.528,577.601 460.077,559.946C403.758,508.83 346.211,548.147 298.391,564.139C198.971,597.387 171.81,504.201 216.886,467.964C257.886,435.003 310.166,469.633 360.637,486.044C432.326,509.354 483.949,456.863 489.707,407.526C495.709,356.093 444.625,295.5 450.037,256.434C458.918,192.317 523.543,186.099 552.51,212.489C607.202,262.316 541.85,328.216 536.325,389.487C533.025,426.085 553.361,456.471 572.134,470.967C634.681,519.267 690.171,469.941 744.588,456.893C825.545,437.483 853.539,529 801.323,561.218C750.775,592.406 701.155,543.526 641.538,535.099ZM507.846,609.347C508.513,610.794 511.898,620.781 514.226,616.334C532.034,582.31 537.064,551.308 601.354,519.213C627.274,506.273 583.359,514.184 542.386,461.585C522.723,436.343 515.17,405.082 511.64,408.635C509.159,411.133 495.555,454.46 467.369,479.354C430.134,512.242 404.591,509.405 421.688,518.139C476.517,546.149 486.512,564.383 507.846,609.347Z" style="fill:rgb(253,252,253);"/>
    </g>
</svg>
